PathFileType	4	(X/Y/Z)	 0.16m3min.trc
DataRate	CameraRate	NumFrames	NumMarkers	Units	OrigDataRate	OrigDataStartFrame	OrigNumFrames
200	200	11	35	m	200	501	1000
Frame#	Time	C7			LSH			RSH			MAN			RASI			LASI			HIPR			HIPL			RPSI			LPSI			COX			RTHI1			RTHI2			RTHI3			RTHI4			RSHA1			RSHA2			RSHA3			RSHA4			RHEEL			RMET5			RMET1			RTOE			LTHI1			LTHI2			LTHI3			LTHI4			LSHA1			LSHA2			LSHA3			LSHA4			LHEEL			LMET5			LMET1			LTOE			
		X1	Y1	Z1	X2	Y2	Z2	X3	Y3	Z3	X4	Y4	Z4	X5	Y5	Z5	X6	Y6	Z6	X7	Y7	Z7	X8	Y8	Z8	X9	Y9	Z9	X10	Y10	Z10	X11	Y11	Z11	X12	Y12	Z12	X13	Y13	Z13	X14	Y14	Z14	X15	Y15	Z15	X16	Y16	Z16	X17	Y17	Z17	X18	Y18	Z18	X19	Y19	Z19	X20	Y20	Z20	X21	Y21	Z21	X22	Y22	Z22	X23	Y23	Z23	X24	Y24	Z24	X25	Y25	Z25	X26	Y26	Z26	X27	Y27	Z27	X28	Y28	Z28	X29	Y29	Z29	X30	Y30	Z30	X31	Y31	Z31	X32	Y32	Z32	X33	Y33	Z33	X34	Y34	Z34	X35	Y35	Z35	
501	2.5050	-0.387063	1.439856	-0.496680	-0.301136	1.426107	-0.653062	-0.320763	1.419103	-0.320386	-0.264459	1.399485	-0.487758	-0.232005	1.003385	-0.403147	-0.219845	1.016736	-0.594996	-0.276861	1.048778	-0.360190	-0.266596	1.062039	-0.618691	-0.370033	1.043503	-0.433773	-0.359199	1.051371	-0.544691	-0.371339	1.048208	-0.493236	-0.327546	0.796286	-0.318687	-0.311732	0.739149	-0.311711	-0.248547	0.754917	-0.312497	-0.257721	0.815100	-0.320441	-0.369486	0.369262	-0.296113	-0.378778	0.327736	-0.298908	-0.318845	0.320636	-0.291346	-0.312898	0.360908	-0.292174	-0.422936	0.164207	-0.354686	-0.319724	0.045054	-0.290311	-0.278070	0.049374	-0.356941	-0.261324	0.031303	-0.348117	-0.302677	0.820198	-0.668291	-0.289960	0.759781	-0.671495	-0.226992	0.766764	-0.658916	-0.230997	0.826754	-0.654016	-0.374111	0.335500	-0.674725	-0.384956	0.296765	-0.670049	-0.322787	0.286639	-0.668254	-0.320461	0.330507	-0.674554	-0.430488	0.160153	-0.624049	-0.311949	0.046393	-0.666957	-0.281282	0.050477	-0.602586	-0.262367	0.034670	-0.611412	
502	2.5100	-0.387366	1.446384	-0.495816	-0.302134	1.432772	-0.653092	-0.321365	1.425385	-0.320589	-0.265054	1.406188	-0.487955	-0.231410	1.009709	-0.403413	-0.219254	1.023049	-0.594750	-0.275687	1.055505	-0.360418	-0.265592	1.068683	-0.618545	-0.369011	1.051069	-0.433762	-0.358275	1.058506	-0.544625	-0.370369	1.055470	-0.493163	-0.329071	0.803595	-0.318660	-0.313889	0.746337	-0.311256	-0.250646	0.761573	-0.311296	-0.259115	0.821750	-0.319637	-0.371168	0.374542	-0.296227	-0.379562	0.332871	-0.298606	-0.319723	0.327012	-0.289525	-0.314478	0.367288	-0.290741	-0.418942	0.169678	-0.353412	-0.318352	0.047997	-0.289312	-0.275133	0.053037	-0.354365	-0.259184	0.033442	-0.345937	-0.303831	0.827354	-0.668523	-0.291607	0.766872	-0.672290	-0.228479	0.773269	-0.660148	-0.231989	0.833246	-0.654761	-0.374190	0.340836	-0.676041	-0.384489	0.301965	-0.671427	-0.322149	0.292673	-0.670005	-0.320458	0.336607	-0.676198	-0.427979	0.165407	-0.625503	-0.309815	0.051365	-0.668526	-0.278706	0.055592	-0.604871	-0.260053	0.039342	-0.613885	
503	2.5150	-0.387782	1.452650	-0.495342	-0.303127	1.439119	-0.653178	-0.321918	1.431375	-0.320774	-0.265619	1.412598	-0.488174	-0.230830	1.015715	-0.403624	-0.218726	1.029000	-0.594522	-0.274567	1.061892	-0.360592	-0.264662	1.074951	-0.618457	-0.368004	1.057957	-0.433613	-0.357446	1.065324	-0.544582	-0.369484	1.062429	-0.493092	-0.330624	0.810558	-0.318705	-0.316054	0.753183	-0.310914	-0.252782	0.767904	-0.310172	-0.260505	0.828057	-0.318905	-0.372704	0.379728	-0.296298	-0.380277	0.337900	-0.298344	-0.320563	0.333208	-0.287807	-0.315992	0.373493	-0.289403	-0.415180	0.175014	-0.352163	-0.316904	0.051362	-0.288028	-0.272104	0.057063	-0.351381	-0.256920	0.036111	-0.343201	-0.305013	0.834027	-0.668731	-0.293219	0.773502	-0.673022	-0.229945	0.779396	-0.661322	-0.233019	0.839345	-0.655510	-0.374245	0.346230	-0.677265	-0.384163	0.307288	-0.672715	-0.321703	0.298582	-0.671588	-0.320466	0.342546	-0.677668	-0.426070	0.170427	-0.626853	-0.307713	0.056854	-0.670500	-0.276117	0.061295	-0.607352	-0.257555	0.044832	-0.616515	
504	2.5200	-0.388276	1.458381	-0.495373	-0.304116	1.445156	-0.653310	-0.322433	1.437083	-0.320935	-0.266184	1.418707	-0.488409	-0.230270	1.021397	-0.403777	-0.218273	1.034604	-0.594326	-0.273514	1.067948	-0.360711	-0.263837	1.080850	-0.618420	-0.366980	1.064580	-0.433572	-0.356723	1.071807	-0.544555	-0.368723	1.069068	-0.493027	-0.332192	0.817142	-0.318809	-0.318206	0.759667	-0.310692	-0.254917	0.773882	-0.309128	-0.261915	0.834024	-0.318209	-0.374107	0.384808	-0.296278	-0.380958	0.342835	-0.298112	-0.321380	0.339227	-0.286212	-0.317432	0.379521	-0.288158	-0.411717	0.180123	-0.351025	-0.315354	0.055169	-0.286446	-0.269008	0.061475	-0.348035	-0.254503	0.039404	-0.339917	-0.306199	0.840199	-0.668917	-0.294769	0.779648	-0.673681	-0.231367	0.785140	-0.662432	-0.234074	0.845054	-0.656263	-0.374342	0.351693	-0.678384	-0.384032	0.312714	-0.673890	-0.321487	0.304369	-0.673038	-0.320535	0.348350	-0.679001	-0.424706	0.175222	-0.628069	-0.305723	0.062736	-0.672838	-0.273589	0.067429	-0.610025	-0.254989	0.050938	-0.619307	
505	2.5250	-0.388857	1.463735	-0.495316	-0.305112	1.450889	-0.653478	-0.322913	1.442524	-0.321064	-0.266767	1.424514	-0.488654	-0.229742	1.026777	-0.403869	-0.217909	1.039875	-0.594170	-0.272498	1.073705	-0.360771	-0.263150	1.086395	-0.618425	-0.366176	1.071073	-0.433410	-0.356124	1.077948	-0.544532	-0.368093	1.075352	-0.492971	-0.333766	0.823344	-0.318964	-0.320316	0.765766	-0.310582	-0.257027	0.779511	-0.308165	-0.263336	0.839653	-0.317549	-0.375407	0.389792	-0.296180	-0.381599	0.347671	-0.297866	-0.322183	0.345053	-0.284764	-0.318812	0.385359	-0.287024	-0.408621	0.184918	-0.350049	-0.313663	0.059428	-0.284529	-0.265889	0.066244	-0.344383	-0.251907	0.043369	-0.336137	-0.307371	0.845877	-0.669073	-0.296221	0.785323	-0.674269	-0.232703	0.790519	-0.663472	-0.235131	0.850386	-0.657012	-0.374531	0.357199	-0.679368	-0.384098	0.318202	-0.674928	-0.321507	0.310025	-0.674403	-0.320706	0.354029	-0.680235	-0.423815	0.179816	-0.629137	-0.303918	0.068862	-0.675466	-0.271209	0.073804	-0.612887	-0.252481	0.057418	-0.622274	
506	2.5300	-0.389426	1.468856	-0.495347	-0.306118	1.456325	-0.653669	-0.323361	1.447715	-0.321163	-0.267405	1.430022	-0.488904	-0.229254	1.031872	-0.403908	-0.217637	1.044835	-0.594064	-0.271577	1.079151	-0.360773	-0.262623	1.091618	-0.618467	-0.365536	1.076773	-0.433331	-0.355659	1.083731	-0.544493	-0.367588	1.081277	-0.492911	-0.335324	0.829154	-0.319162	-0.322353	0.771470	-0.310585	-0.259101	0.784791	-0.307262	-0.264737	0.844938	-0.316946	-0.376625	0.394650	-0.295994	-0.382243	0.352393	-0.297627	-0.322990	0.350663	-0.283462	-0.320140	0.391008	-0.286021	-0.405946	0.189356	-0.349242	-0.311802	0.064125	-0.282263	-0.262756	0.071363	-0.340510	-0.249116	0.048010	-0.331973	-0.308496	0.851089	-0.669197	-0.297537	0.790558	-0.674777	-0.233925	0.795566	-0.664433	-0.236151	0.855375	-0.657741	-0.374830	0.362700	-0.680215	-0.384353	0.323690	-0.675812	-0.321736	0.315545	-0.675716	-0.320993	0.359561	-0.681398	-0.423301	0.184245	-0.630075	-0.302373	0.075115	-0.678306	-0.269051	0.080256	-0.615934	-0.250154	0.064026	-0.625432	
507	2.5350	-0.389973	1.473770	-0.495435	-0.307138	1.461469	-0.653876	-0.323780	1.452666	-0.321227	-0.268112	1.435233	-0.489152	-0.228817	1.036697	-0.403903	-0.217460	1.049511	-0.594016	-0.270765	1.084294	-0.360714	-0.262279	1.096543	-0.618532	-0.365016	1.082353	-0.433122	-0.355331	1.089153	-0.544427	-0.367217	1.086827	-0.492841	-0.336839	0.834566	-0.319405	-0.324280	0.776782	-0.310690	-0.260836	0.789578	-0.306628	-0.266132	0.849912	-0.316417	-0.377781	0.399381	-0.295745	-0.382934	0.356992	-0.297440	-0.323819	0.356050	-0.282308	-0.321437	0.396448	-0.285144	-0.403678	0.193400	-0.348561	-0.309759	0.069221	-0.279647	-0.259626	0.076815	-0.336524	-0.246143	0.053283	-0.327563	-0.309548	0.855885	-0.669278	-0.298678	0.795391	-0.675201	-0.234990	0.800335	-0.665311	-0.237112	0.860074	-0.658437	-0.375230	0.368117	-0.680915	-0.384747	0.329135	-0.676546	-0.322126	0.320910	-0.676991	-0.321384	0.364942	-0.682520	-0.423089	0.188548	-0.630907	-0.301149	0.081380	-0.681282	-0.267177	0.086631	-0.619140	-0.248119	0.070566	-0.628794	
508	2.5400	-0.389923	1.478164	-0.493594	-0.308161	1.466326	-0.654089	-0.324125	1.457365	-0.321246	-0.268856	1.440161	-0.489396	-0.228442	1.041263	-0.403866	-0.217380	1.053940	-0.594027	-0.270064	1.089138	-0.360608	-0.262128	1.101186	-0.618609	-0.364675	1.087709	-0.433038	-0.355138	1.094223	-0.544323	-0.366986	1.092004	-0.492758	-0.338285	0.839590	-0.319683	-0.326063	0.781733	-0.310887	-0.262419	0.794066	-0.306151	-0.267518	0.854604	-0.315959	-0.378935	0.403955	-0.295559	-0.383653	0.361483	-0.297255	-0.324692	0.361225	-0.281316	-0.322705	0.401642	-0.284397	-0.401843	0.197024	-0.348067	-0.307543	0.074666	-0.276716	-0.256482	0.082563	-0.332554	-0.242992	0.059104	-0.323079	-0.310494	0.860339	-0.669356	-0.299614	0.799885	-0.675551	-0.235869	0.804881	-0.666084	-0.237988	0.864553	-0.659061	-0.375702	0.373409	-0.681496	-0.385242	0.334442	-0.677143	-0.322630	0.326089	-0.678226	-0.321847	0.370154	-0.683616	-0.423109	0.192756	-0.631631	-0.300291	0.087565	-0.684324	-0.265633	0.092825	-0.622456	-0.246453	0.076902	-0.632315	
509	2.5450	-0.390521	1.482654	-0.493620	-0.309184	1.470903	-0.654304	-0.324389	1.461819	-0.321228	-0.269608	1.444831	-0.489633	-0.228138	1.045594	-0.403815	-0.217391	1.058143	-0.594091	-0.269486	1.093701	-0.360460	-0.262172	1.105571	-0.618690	-0.364443	1.092540	-0.432717	-0.355077	1.098950	-0.544173	-0.366857	1.096819	-0.492632	-0.339639	0.844261	-0.319982	-0.327666	0.786347	-0.311140	-0.263858	0.798333	-0.305846	-0.268843	0.859029	-0.315613	-0.380083	0.408374	-0.295458	-0.384388	0.365848	-0.297052	-0.325614	0.366156	-0.280476	-0.323950	0.406589	-0.283782	-0.400439	0.200254	-0.347659	-0.305184	0.080401	-0.273505	-0.253378	0.088523	-0.328669	-0.239709	0.065375	-0.318636	-0.311314	0.864516	-0.669428	-0.300323	0.804109	-0.675839	-0.236540	0.809255	-0.666740	-0.238752	0.868869	-0.659589	-0.376205	0.378523	-0.681965	-0.385780	0.339585	-0.677616	-0.323198	0.331065	-0.679416	-0.322349	0.375163	-0.684679	-0.423308	0.196891	-0.632249	-0.299812	0.093592	-0.687363	-0.264468	0.098743	-0.625810	-0.245195	0.082955	-0.635927	
510	2.5500	-0.391126	1.486970	-0.493723	-0.310192	1.475205	-0.654518	-0.324573	1.466032	-0.321181	-0.270350	1.449262	-0.489865	-0.227907	1.049706	-0.403762	-0.217484	1.062153	-0.594205	-0.269053	1.097978	-0.360283	-0.262402	1.109708	-0.618769	-0.364319	1.097161	-0.432624	-0.355127	1.103345	-0.543975	-0.366805	1.101304	-0.492455	-0.340875	0.848597	-0.320310	-0.329070	0.790661	-0.311422	-0.265124	0.802390	-0.305714	-0.270067	0.863206	-0.315402	-0.381212	0.412612	-0.295431	-0.385203	0.370048	-0.296916	-0.326584	0.370848	-0.279769	-0.325177	0.411289	-0.283278	-0.399450	0.203141	-0.347213	-0.302733	0.086354	-0.270093	-0.250360	0.094644	-0.324911	-0.236373	0.071980	-0.314301	-0.311985	0.868469	-0.669500	-0.300790	0.808109	-0.676054	-0.236995	0.813505	-0.667269	-0.239389	0.873075	-0.660015	-0.376705	0.383437	-0.682352	-0.386332	0.344540	-0.677988	-0.323791	0.335826	-0.680541	-0.322858	0.379940	-0.685698	-0.423645	0.200958	-0.632757	-0.299710	0.099420	-0.690342	-0.263675	0.104365	-0.629132	-0.244346	0.088678	-0.639545	
511	2.5550	-0.391803	1.491182	-0.493694	-0.311174	1.479236	-0.654730	-0.324681	1.470002	-0.321113	-0.271067	1.453457	-0.490091	-0.227757	1.053606	-0.403719	-0.217654	1.065995	-0.594360	-0.268742	1.101995	-0.360092	-0.262794	1.113605	-0.618843	-0.364255	1.101587	-0.432205	-0.355280	1.107438	-0.543744	-0.366845	1.105472	-0.492237	-0.341964	0.852640	-0.320620	-0.330255	0.794706	-0.311692	-0.266179	0.806253	-0.305763	-0.271152	0.867166	-0.315343	-0.382324	0.416683	-0.295471	-0.386057	0.374100	-0.296796	-0.327591	0.375304	-0.279187	-0.326383	0.415736	-0.282868	-0.398812	0.205707	-0.346712	-0.300250	0.092447	-0.266570	-0.247481	0.100856	-0.321290	-0.233079	0.078805	-0.310101	-0.312500	0.872256	-0.669574	-0.301023	0.811939	-0.676214	-0.237236	0.817663	-0.667659	-0.239898	0.877206	-0.660330	-0.377174	0.388138	-0.682669	-0.386871	0.349279	-0.678278	-0.324387	0.340354	-0.681594	-0.323353	0.384476	-0.686661	-0.424091	0.204953	-0.633149	-0.299963	0.105002	-0.693223	-0.263230	0.109654	-0.632374	-0.243881	0.094058	-0.643105	
